# xmcd CD database file
#
# Track frame offsets:
#	150
#	12830
#	26335
#	52997
#	73939
#	86200
#	105887
#	117613
#	145595
#	165414
#	187567
#	217950
#
# Disc length: 4034 seconds
#
# Revision: 0
# Processed by: cddbd v1.5.2PL0 Copyright (c) Steve Scherf et al.
# Submitted via: CDex 1.70beta2
#
DISCID=910fc00c
DTITLE=Boom Pam - Puerto Rican Nights
DYEAR=2008
DGENRE=Balkan
TTITLE0=Ushest
TTITLE1=Shayeret Harohvim
TTITLE2=Krai Dunavsko
TTITLE3=Marilyn Jones
TTITLE4=Ay Carmela
TTITLE5=Ani Rotse Lazuz
TTITLE6=The Wedge
TTITLE7=Longa Sultaniyegah
TTITLE8=Chervone Corale
TTITLE9=Boom Pam
TTITLE10=Ay Carmela
TTITLE11=Dalida - Ay Carmela
EXTD=YEAR: 2008
EXTT0=
EXTT1=
EXTT2=
EXTT3=
EXTT4=
EXTT5=
EXTT6=
EXTT7=
EXTT8=
EXTT9=
EXTT10=
EXTT11=
PLAYORDER=
